<mxfile host="app.diagrams.net" modified="2023-11-02T15:06:50.182Z" agent="Mozilla/5.0 (Windows NT 10.0; Win64; x64) AppleWebKit/537.36 (KHTML, like Gecko) Chrome/118.0.0.0 Safari/537.36" etag="C15Atc553oy2_9v0ZSK8" version="22.0.8" type="device">
  <diagram name="第 1 页" id="Br1ibwmCmcFx2N9hwT8p">
    <mxGraphModel dx="667" dy="720" grid="0" gridSize="10" guides="1" tooltips="1" connect="1" arrows="1" fold="1" page="1" pageScale="1" pageWidth="827" pageHeight="1169" math="0" shadow="0">
      <root>
        <mxCell id="0" />
        <mxCell id="1" parent="0" />
        <mxCell id="IUmGNu2k-DWXKbYTk_gy-1" value="&lt;span style=&quot;font-size: 24px;&quot;&gt;泛化關係:&lt;/span&gt;" style="text;html=1;strokeColor=none;fillColor=none;align=center;verticalAlign=middle;whiteSpace=wrap;rounded=0;" vertex="1" parent="1">
          <mxGeometry x="13" y="154" width="136" height="30" as="geometry" />
        </mxCell>
        <mxCell id="IUmGNu2k-DWXKbYTk_gy-2" value="" style="line;strokeWidth=1;rotatable=0;dashed=0;labelPosition=right;align=left;verticalAlign=middle;spacingTop=0;spacingLeft=6;points=[];portConstraint=eastwest;" vertex="1" parent="1">
          <mxGeometry x="158" y="164" width="73" height="10" as="geometry" />
        </mxCell>
        <mxCell id="IUmGNu2k-DWXKbYTk_gy-3" value="" style="strokeWidth=2;html=1;shape=mxgraph.flowchart.extract_or_measurement;whiteSpace=wrap;direction=south;" vertex="1" parent="1">
          <mxGeometry x="231" y="159.25" width="39.5" height="19.5" as="geometry" />
        </mxCell>
        <mxCell id="IUmGNu2k-DWXKbYTk_gy-4" value="Relation" style="swimlane;fontStyle=1;align=center;verticalAlign=top;childLayout=stackLayout;horizontal=1;startSize=26;horizontalStack=0;resizeParent=1;resizeParentMax=0;resizeLast=0;collapsible=1;marginBottom=0;whiteSpace=wrap;html=1;" vertex="1" parent="1">
          <mxGeometry x="291" y="223" width="160" height="34" as="geometry" />
        </mxCell>
        <mxCell id="IUmGNu2k-DWXKbYTk_gy-6" value="" style="line;strokeWidth=1;fillColor=none;align=left;verticalAlign=middle;spacingTop=-1;spacingLeft=3;spacingRight=3;rotatable=0;labelPosition=right;points=[];portConstraint=eastwest;strokeColor=inherit;" vertex="1" parent="IUmGNu2k-DWXKbYTk_gy-4">
          <mxGeometry y="26" width="160" height="8" as="geometry" />
        </mxCell>
        <mxCell id="IUmGNu2k-DWXKbYTk_gy-8" value="Association" style="swimlane;fontStyle=1;align=center;verticalAlign=top;childLayout=stackLayout;horizontal=1;startSize=26;horizontalStack=0;resizeParent=1;resizeParentMax=0;resizeLast=0;collapsible=1;marginBottom=0;whiteSpace=wrap;html=1;" vertex="1" parent="1">
          <mxGeometry x="28" y="328" width="160" height="34" as="geometry" />
        </mxCell>
        <mxCell id="IUmGNu2k-DWXKbYTk_gy-9" value="" style="line;strokeWidth=1;fillColor=none;align=left;verticalAlign=middle;spacingTop=-1;spacingLeft=3;spacingRight=3;rotatable=0;labelPosition=right;points=[];portConstraint=eastwest;strokeColor=inherit;" vertex="1" parent="IUmGNu2k-DWXKbYTk_gy-8">
          <mxGeometry y="26" width="160" height="8" as="geometry" />
        </mxCell>
        <mxCell id="IUmGNu2k-DWXKbYTk_gy-10" value="Generalization" style="swimlane;fontStyle=1;align=center;verticalAlign=top;childLayout=stackLayout;horizontal=1;startSize=26;horizontalStack=0;resizeParent=1;resizeParentMax=0;resizeLast=0;collapsible=1;marginBottom=0;whiteSpace=wrap;html=1;" vertex="1" parent="1">
          <mxGeometry x="209" y="328" width="160" height="34" as="geometry" />
        </mxCell>
        <mxCell id="IUmGNu2k-DWXKbYTk_gy-11" value="" style="line;strokeWidth=1;fillColor=none;align=left;verticalAlign=middle;spacingTop=-1;spacingLeft=3;spacingRight=3;rotatable=0;labelPosition=right;points=[];portConstraint=eastwest;strokeColor=inherit;" vertex="1" parent="IUmGNu2k-DWXKbYTk_gy-10">
          <mxGeometry y="26" width="160" height="8" as="geometry" />
        </mxCell>
        <mxCell id="IUmGNu2k-DWXKbYTk_gy-12" value="Realization" style="swimlane;fontStyle=1;align=center;verticalAlign=top;childLayout=stackLayout;horizontal=1;startSize=26;horizontalStack=0;resizeParent=1;resizeParentMax=0;resizeLast=0;collapsible=1;marginBottom=0;whiteSpace=wrap;html=1;" vertex="1" parent="1">
          <mxGeometry x="401" y="328" width="160" height="34" as="geometry" />
        </mxCell>
        <mxCell id="IUmGNu2k-DWXKbYTk_gy-13" value="" style="line;strokeWidth=1;fillColor=none;align=left;verticalAlign=middle;spacingTop=-1;spacingLeft=3;spacingRight=3;rotatable=0;labelPosition=right;points=[];portConstraint=eastwest;strokeColor=inherit;" vertex="1" parent="IUmGNu2k-DWXKbYTk_gy-12">
          <mxGeometry y="26" width="160" height="8" as="geometry" />
        </mxCell>
        <mxCell id="IUmGNu2k-DWXKbYTk_gy-14" value="Dependency" style="swimlane;fontStyle=1;align=center;verticalAlign=top;childLayout=stackLayout;horizontal=1;startSize=26;horizontalStack=0;resizeParent=1;resizeParentMax=0;resizeLast=0;collapsible=1;marginBottom=0;whiteSpace=wrap;html=1;" vertex="1" parent="1">
          <mxGeometry x="585" y="328" width="160" height="34" as="geometry" />
        </mxCell>
        <mxCell id="IUmGNu2k-DWXKbYTk_gy-15" value="" style="line;strokeWidth=1;fillColor=none;align=left;verticalAlign=middle;spacingTop=-1;spacingLeft=3;spacingRight=3;rotatable=0;labelPosition=right;points=[];portConstraint=eastwest;strokeColor=inherit;" vertex="1" parent="IUmGNu2k-DWXKbYTk_gy-14">
          <mxGeometry y="26" width="160" height="8" as="geometry" />
        </mxCell>
        <mxCell id="IUmGNu2k-DWXKbYTk_gy-22" value="" style="endArrow=none;html=1;rounded=0;" edge="1" parent="1">
          <mxGeometry width="50" height="50" relative="1" as="geometry">
            <mxPoint x="114" y="306" as="sourcePoint" />
            <mxPoint x="637" y="306" as="targetPoint" />
          </mxGeometry>
        </mxCell>
        <mxCell id="IUmGNu2k-DWXKbYTk_gy-23" value="" style="endArrow=none;html=1;rounded=0;" edge="1" parent="1" source="IUmGNu2k-DWXKbYTk_gy-24">
          <mxGeometry width="50" height="50" relative="1" as="geometry">
            <mxPoint x="370" y="306" as="sourcePoint" />
            <mxPoint x="370" y="265" as="targetPoint" />
          </mxGeometry>
        </mxCell>
        <mxCell id="IUmGNu2k-DWXKbYTk_gy-24" value="" style="triangle;whiteSpace=wrap;html=1;direction=north;" vertex="1" parent="1">
          <mxGeometry x="358" y="259" width="21" height="30" as="geometry" />
        </mxCell>
        <mxCell id="IUmGNu2k-DWXKbYTk_gy-27" value="" style="endArrow=none;html=1;rounded=0;entryX=0;entryY=0.5;entryDx=0;entryDy=0;" edge="1" parent="1" target="IUmGNu2k-DWXKbYTk_gy-24">
          <mxGeometry width="50" height="50" relative="1" as="geometry">
            <mxPoint x="369" y="307" as="sourcePoint" />
            <mxPoint x="425" y="282" as="targetPoint" />
          </mxGeometry>
        </mxCell>
        <mxCell id="IUmGNu2k-DWXKbYTk_gy-28" value="" style="endArrow=none;html=1;rounded=0;exitX=0.5;exitY=0;exitDx=0;exitDy=0;" edge="1" parent="1" source="IUmGNu2k-DWXKbYTk_gy-8">
          <mxGeometry width="50" height="50" relative="1" as="geometry">
            <mxPoint x="390" y="560" as="sourcePoint" />
            <mxPoint x="117" y="306" as="targetPoint" />
          </mxGeometry>
        </mxCell>
        <mxCell id="IUmGNu2k-DWXKbYTk_gy-29" value="" style="endArrow=none;html=1;rounded=0;exitX=0.5;exitY=0;exitDx=0;exitDy=0;" edge="1" parent="1" source="IUmGNu2k-DWXKbYTk_gy-10">
          <mxGeometry width="50" height="50" relative="1" as="geometry">
            <mxPoint x="390" y="560" as="sourcePoint" />
            <mxPoint x="289" y="307" as="targetPoint" />
          </mxGeometry>
        </mxCell>
        <mxCell id="IUmGNu2k-DWXKbYTk_gy-30" value="" style="endArrow=none;html=1;rounded=0;exitX=0.5;exitY=0;exitDx=0;exitDy=0;" edge="1" parent="1" source="IUmGNu2k-DWXKbYTk_gy-12">
          <mxGeometry width="50" height="50" relative="1" as="geometry">
            <mxPoint x="390" y="560" as="sourcePoint" />
            <mxPoint x="481" y="306" as="targetPoint" />
          </mxGeometry>
        </mxCell>
        <mxCell id="IUmGNu2k-DWXKbYTk_gy-31" value="" style="endArrow=none;html=1;rounded=0;exitX=0.5;exitY=0;exitDx=0;exitDy=0;" edge="1" parent="1" source="IUmGNu2k-DWXKbYTk_gy-14">
          <mxGeometry width="50" height="50" relative="1" as="geometry">
            <mxPoint x="390" y="560" as="sourcePoint" />
            <mxPoint x="633" y="307" as="targetPoint" />
          </mxGeometry>
        </mxCell>
        <mxCell id="IUmGNu2k-DWXKbYTk_gy-32" value="&lt;font style=&quot;font-size: 18px;&quot;&gt;關聯、泛化、實現、依賴都是一種關係&lt;/font&gt;" style="text;html=1;strokeColor=none;fillColor=none;align=center;verticalAlign=middle;whiteSpace=wrap;rounded=0;" vertex="1" parent="1">
          <mxGeometry x="621" y="244" width="166" height="30" as="geometry" />
        </mxCell>
        <mxCell id="IUmGNu2k-DWXKbYTk_gy-33" value="Thing" style="swimlane;fontStyle=1;align=center;verticalAlign=top;childLayout=stackLayout;horizontal=1;startSize=26;horizontalStack=0;resizeParent=1;resizeParentMax=0;resizeLast=0;collapsible=1;marginBottom=0;whiteSpace=wrap;html=1;" vertex="1" parent="1">
          <mxGeometry x="286.5" y="447" width="160" height="34" as="geometry" />
        </mxCell>
        <mxCell id="IUmGNu2k-DWXKbYTk_gy-35" value="" style="line;strokeWidth=1;fillColor=none;align=left;verticalAlign=middle;spacingTop=-1;spacingLeft=3;spacingRight=3;rotatable=0;labelPosition=right;points=[];portConstraint=eastwest;strokeColor=inherit;" vertex="1" parent="IUmGNu2k-DWXKbYTk_gy-33">
          <mxGeometry y="26" width="160" height="8" as="geometry" />
        </mxCell>
        <mxCell id="IUmGNu2k-DWXKbYTk_gy-38" value="Class" style="swimlane;fontStyle=1;align=center;verticalAlign=top;childLayout=stackLayout;horizontal=1;startSize=26;horizontalStack=0;resizeParent=1;resizeParentMax=0;resizeLast=0;collapsible=1;marginBottom=0;whiteSpace=wrap;html=1;" vertex="1" parent="1">
          <mxGeometry x="174" y="591" width="160" height="34" as="geometry" />
        </mxCell>
        <mxCell id="IUmGNu2k-DWXKbYTk_gy-39" value="" style="line;strokeWidth=1;fillColor=none;align=left;verticalAlign=middle;spacingTop=-1;spacingLeft=3;spacingRight=3;rotatable=0;labelPosition=right;points=[];portConstraint=eastwest;strokeColor=inherit;" vertex="1" parent="IUmGNu2k-DWXKbYTk_gy-38">
          <mxGeometry y="26" width="160" height="8" as="geometry" />
        </mxCell>
        <mxCell id="IUmGNu2k-DWXKbYTk_gy-40" value="Interface" style="swimlane;fontStyle=1;align=center;verticalAlign=top;childLayout=stackLayout;horizontal=1;startSize=26;horizontalStack=0;resizeParent=1;resizeParentMax=0;resizeLast=0;collapsible=1;marginBottom=0;whiteSpace=wrap;html=1;" vertex="1" parent="1">
          <mxGeometry x="395" y="591" width="160" height="34" as="geometry" />
        </mxCell>
        <mxCell id="IUmGNu2k-DWXKbYTk_gy-41" value="" style="line;strokeWidth=1;fillColor=none;align=left;verticalAlign=middle;spacingTop=-1;spacingLeft=3;spacingRight=3;rotatable=0;labelPosition=right;points=[];portConstraint=eastwest;strokeColor=inherit;" vertex="1" parent="IUmGNu2k-DWXKbYTk_gy-40">
          <mxGeometry y="26" width="160" height="8" as="geometry" />
        </mxCell>
        <mxCell id="IUmGNu2k-DWXKbYTk_gy-42" value="" style="endArrow=none;html=1;rounded=0;" edge="1" parent="1">
          <mxGeometry width="50" height="50" relative="1" as="geometry">
            <mxPoint x="254" y="547" as="sourcePoint" />
            <mxPoint x="475" y="547" as="targetPoint" />
          </mxGeometry>
        </mxCell>
        <mxCell id="IUmGNu2k-DWXKbYTk_gy-43" value="" style="endArrow=none;html=1;rounded=0;" edge="1" parent="1">
          <mxGeometry width="50" height="50" relative="1" as="geometry">
            <mxPoint x="365" y="545" as="sourcePoint" />
            <mxPoint x="365" y="511" as="targetPoint" />
          </mxGeometry>
        </mxCell>
        <mxCell id="IUmGNu2k-DWXKbYTk_gy-44" value="" style="triangle;whiteSpace=wrap;html=1;direction=north;" vertex="1" parent="1">
          <mxGeometry x="355" y="484" width="21" height="25" as="geometry" />
        </mxCell>
        <mxCell id="IUmGNu2k-DWXKbYTk_gy-45" value="" style="endArrow=none;html=1;rounded=0;exitX=0.5;exitY=0;exitDx=0;exitDy=0;" edge="1" parent="1" source="IUmGNu2k-DWXKbYTk_gy-38">
          <mxGeometry width="50" height="50" relative="1" as="geometry">
            <mxPoint x="390" y="552" as="sourcePoint" />
            <mxPoint x="254" y="548" as="targetPoint" />
          </mxGeometry>
        </mxCell>
        <mxCell id="IUmGNu2k-DWXKbYTk_gy-46" value="" style="endArrow=none;html=1;rounded=0;exitX=0.5;exitY=0;exitDx=0;exitDy=0;" edge="1" parent="1" source="IUmGNu2k-DWXKbYTk_gy-40">
          <mxGeometry width="50" height="50" relative="1" as="geometry">
            <mxPoint x="390" y="552" as="sourcePoint" />
            <mxPoint x="475" y="547" as="targetPoint" />
          </mxGeometry>
        </mxCell>
        <mxCell id="IUmGNu2k-DWXKbYTk_gy-47" value="&lt;font style=&quot;font-size: 18px;&quot;&gt;類、接口都是一種事物&lt;/font&gt;" style="text;html=1;strokeColor=none;fillColor=none;align=center;verticalAlign=middle;whiteSpace=wrap;rounded=0;" vertex="1" parent="1">
          <mxGeometry x="515" y="506" width="115" height="30" as="geometry" />
        </mxCell>
      </root>
    </mxGraphModel>
  </diagram>
</mxfile>
